<mxfile host="app.diagrams.net" modified="2021-04-14T02:39:34.568Z" agent="5.0 (Windows NT 10.0; Win64; x64) AppleWebKit/537.36 (KHTML, like Gecko) Chrome/89.0.4389.114 Safari/537.36" etag="FA3Z5HE3MTpw7G4pzpqg" version="14.6.0" type="github">
  <diagram name="Page-1" id="13e1069c-82ec-6db2-03f1-153e76fe0fe0">
    <mxGraphModel dx="1202" dy="1364" grid="1" gridSize="10" guides="1" tooltips="1" connect="1" arrows="1" fold="1" page="1" pageScale="1" pageWidth="1100" pageHeight="850" background="#ffffff" math="0" shadow="0">
      <root>
        <mxCell id="0" />
        <mxCell id="1" parent="0" />
        <mxCell id="7baba1c4bc27f4b0-2" value="gateway" style="shape=umlLifeline;perimeter=lifelinePerimeter;whiteSpace=wrap;html=1;container=1;collapsible=0;recursiveResize=0;outlineConnect=0;rounded=1;shadow=0;comic=0;labelBackgroundColor=none;strokeWidth=1;fontFamily=Verdana;fontSize=12;align=center;fillColor=#99FF33;" parent="1" vertex="1">
          <mxGeometry x="310" y="80" width="90" height="910" as="geometry" />
        </mxCell>
        <mxCell id="FNw5vrEfwZnPfqb92Tf1-6" value="" style="html=1;points=[];perimeter=orthogonalPerimeter;" vertex="1" parent="7baba1c4bc27f4b0-2">
          <mxGeometry x="40" y="120" width="10" height="220" as="geometry" />
        </mxCell>
        <mxCell id="FNw5vrEfwZnPfqb92Tf1-25" value="" style="html=1;points=[];perimeter=orthogonalPerimeter;" vertex="1" parent="7baba1c4bc27f4b0-2">
          <mxGeometry x="40" y="420" width="10" height="290" as="geometry" />
        </mxCell>
        <mxCell id="FNw5vrEfwZnPfqb92Tf1-26" value="dispatch" style="html=1;verticalAlign=bottom;endArrow=block;" edge="1" parent="7baba1c4bc27f4b0-2" target="7baba1c4bc27f4b0-3">
          <mxGeometry width="80" relative="1" as="geometry">
            <mxPoint x="60" y="460" as="sourcePoint" />
            <mxPoint x="140" y="460" as="targetPoint" />
          </mxGeometry>
        </mxCell>
        <mxCell id="7baba1c4bc27f4b0-3" value="uaa" style="shape=umlLifeline;perimeter=lifelinePerimeter;whiteSpace=wrap;html=1;container=1;collapsible=0;recursiveResize=0;outlineConnect=0;rounded=1;shadow=0;comic=0;labelBackgroundColor=none;strokeWidth=1;fontFamily=Verdana;fontSize=12;align=center;fillColor=#CCCC00;" parent="1" vertex="1">
          <mxGeometry x="580" y="80" width="100" height="970" as="geometry" />
        </mxCell>
        <mxCell id="FNw5vrEfwZnPfqb92Tf1-12" value="" style="html=1;points=[];perimeter=orthogonalPerimeter;" vertex="1" parent="7baba1c4bc27f4b0-3">
          <mxGeometry x="45" y="130" width="15" height="210" as="geometry" />
        </mxCell>
        <mxCell id="FNw5vrEfwZnPfqb92Tf1-13" value="" style="html=1;points=[];perimeter=orthogonalPerimeter;" vertex="1" parent="7baba1c4bc27f4b0-3">
          <mxGeometry x="55" y="170" width="10" height="40" as="geometry" />
        </mxCell>
        <mxCell id="FNw5vrEfwZnPfqb92Tf1-14" value="渠道校验" style="edgeStyle=orthogonalEdgeStyle;html=1;align=left;spacingLeft=2;endArrow=block;rounded=0;entryX=1;entryY=0;" edge="1" target="FNw5vrEfwZnPfqb92Tf1-13" parent="7baba1c4bc27f4b0-3">
          <mxGeometry relative="1" as="geometry">
            <mxPoint x="55" y="155" as="sourcePoint" />
            <Array as="points">
              <mxPoint x="85" y="155" />
            </Array>
          </mxGeometry>
        </mxCell>
        <mxCell id="FNw5vrEfwZnPfqb92Tf1-17" value="发送短信" style="html=1;verticalAlign=bottom;startArrow=oval;startFill=1;endArrow=block;startSize=8;" edge="1" parent="7baba1c4bc27f4b0-3" target="FNw5vrEfwZnPfqb92Tf1-10">
          <mxGeometry width="60" relative="1" as="geometry">
            <mxPoint x="60" y="240" as="sourcePoint" />
            <mxPoint x="120" y="240" as="targetPoint" />
          </mxGeometry>
        </mxCell>
        <mxCell id="FNw5vrEfwZnPfqb92Tf1-27" value="" style="html=1;points=[];perimeter=orthogonalPerimeter;" vertex="1" parent="7baba1c4bc27f4b0-3">
          <mxGeometry x="47" y="460" width="10" height="230" as="geometry" />
        </mxCell>
        <mxCell id="FNw5vrEfwZnPfqb92Tf1-28" value="" style="html=1;points=[];perimeter=orthogonalPerimeter;" vertex="1" parent="7baba1c4bc27f4b0-3">
          <mxGeometry x="52" y="490" width="10" height="40" as="geometry" />
        </mxCell>
        <mxCell id="FNw5vrEfwZnPfqb92Tf1-29" value="验证验证码" style="edgeStyle=orthogonalEdgeStyle;html=1;align=left;spacingLeft=2;endArrow=block;rounded=0;entryX=1;entryY=0;" edge="1" target="FNw5vrEfwZnPfqb92Tf1-28" parent="7baba1c4bc27f4b0-3">
          <mxGeometry relative="1" as="geometry">
            <mxPoint x="57" y="470" as="sourcePoint" />
            <Array as="points">
              <mxPoint x="87" y="470" />
            </Array>
          </mxGeometry>
        </mxCell>
        <mxCell id="FNw5vrEfwZnPfqb92Tf1-32" value="" style="html=1;points=[];perimeter=orthogonalPerimeter;" vertex="1" parent="7baba1c4bc27f4b0-3">
          <mxGeometry x="49" y="590" width="10" height="40" as="geometry" />
        </mxCell>
        <mxCell id="FNw5vrEfwZnPfqb92Tf1-33" value="生成accessToken" style="edgeStyle=orthogonalEdgeStyle;html=1;align=left;spacingLeft=2;endArrow=block;rounded=0;entryX=1;entryY=0;" edge="1" target="FNw5vrEfwZnPfqb92Tf1-32" parent="7baba1c4bc27f4b0-3">
          <mxGeometry relative="1" as="geometry">
            <mxPoint x="54" y="570" as="sourcePoint" />
            <Array as="points">
              <mxPoint x="84" y="570" />
            </Array>
          </mxGeometry>
        </mxCell>
        <mxCell id="7baba1c4bc27f4b0-8" value="用户" style="shape=umlLifeline;perimeter=lifelinePerimeter;whiteSpace=wrap;html=1;container=1;collapsible=0;recursiveResize=0;outlineConnect=0;rounded=1;shadow=0;comic=0;labelBackgroundColor=none;strokeWidth=1;fontFamily=Verdana;fontSize=12;align=center;fillColor=#66FF66;" parent="1" vertex="1">
          <mxGeometry x="30" y="80" width="100" height="900" as="geometry" />
        </mxCell>
        <mxCell id="FNw5vrEfwZnPfqb92Tf1-8" value="" style="html=1;points=[];perimeter=orthogonalPerimeter;" vertex="1" parent="7baba1c4bc27f4b0-8">
          <mxGeometry x="45" y="90" width="10" height="690" as="geometry" />
        </mxCell>
        <mxCell id="FNw5vrEfwZnPfqb92Tf1-22" value="" style="html=1;points=[];perimeter=orthogonalPerimeter;" vertex="1" parent="7baba1c4bc27f4b0-8">
          <mxGeometry x="50" y="365" width="10" height="40" as="geometry" />
        </mxCell>
        <mxCell id="FNw5vrEfwZnPfqb92Tf1-23" value="输入验证码" style="edgeStyle=orthogonalEdgeStyle;html=1;align=left;spacingLeft=2;endArrow=block;rounded=0;entryX=1;entryY=0;" edge="1" target="FNw5vrEfwZnPfqb92Tf1-22" parent="7baba1c4bc27f4b0-8">
          <mxGeometry relative="1" as="geometry">
            <mxPoint x="55" y="345" as="sourcePoint" />
            <Array as="points">
              <mxPoint x="85" y="345" />
            </Array>
          </mxGeometry>
        </mxCell>
        <mxCell id="FNw5vrEfwZnPfqb92Tf1-7" value="" style="html=1;verticalAlign=bottom;startArrow=oval;endArrow=block;startSize=8;" edge="1" target="FNw5vrEfwZnPfqb92Tf1-6" parent="1">
          <mxGeometry relative="1" as="geometry">
            <mxPoint x="90" y="220" as="sourcePoint" />
          </mxGeometry>
        </mxCell>
        <mxCell id="FNw5vrEfwZnPfqb92Tf1-9" value="根据APPkey&amp;nbsp; 发送短信" style="edgeLabel;html=1;align=center;verticalAlign=middle;resizable=0;points=[];" vertex="1" connectable="0" parent="FNw5vrEfwZnPfqb92Tf1-7">
          <mxGeometry x="-0.4019" y="4" relative="1" as="geometry">
            <mxPoint x="50" y="7" as="offset" />
          </mxGeometry>
        </mxCell>
        <mxCell id="FNw5vrEfwZnPfqb92Tf1-10" value="短信服务" style="shape=umlLifeline;perimeter=lifelinePerimeter;whiteSpace=wrap;html=1;container=1;collapsible=0;recursiveResize=0;outlineConnect=0;rounded=1;shadow=0;comic=0;labelBackgroundColor=none;strokeWidth=1;fontFamily=Verdana;fontSize=12;align=center;fillColor=#FFFF33;" vertex="1" parent="1">
          <mxGeometry x="850" y="80" width="90" height="780" as="geometry" />
        </mxCell>
        <mxCell id="FNw5vrEfwZnPfqb92Tf1-18" value="" style="html=1;points=[];perimeter=orthogonalPerimeter;" vertex="1" parent="FNw5vrEfwZnPfqb92Tf1-10">
          <mxGeometry x="45" y="240" width="10" height="80" as="geometry" />
        </mxCell>
        <mxCell id="FNw5vrEfwZnPfqb92Tf1-11" value="dispatch" style="html=1;verticalAlign=bottom;startArrow=oval;startFill=1;endArrow=block;startSize=8;" edge="1" parent="1" target="7baba1c4bc27f4b0-3">
          <mxGeometry width="60" relative="1" as="geometry">
            <mxPoint x="365" y="220" as="sourcePoint" />
            <mxPoint x="425" y="220" as="targetPoint" />
          </mxGeometry>
        </mxCell>
        <mxCell id="FNw5vrEfwZnPfqb92Tf1-19" value="return" style="html=1;verticalAlign=bottom;endArrow=open;dashed=1;endSize=8;" edge="1" parent="1">
          <mxGeometry relative="1" as="geometry">
            <mxPoint x="890" y="380" as="sourcePoint" />
            <mxPoint x="640" y="380" as="targetPoint" />
          </mxGeometry>
        </mxCell>
        <mxCell id="FNw5vrEfwZnPfqb92Tf1-20" value="return" style="html=1;verticalAlign=bottom;endArrow=open;dashed=1;endSize=8;" edge="1" parent="1">
          <mxGeometry relative="1" as="geometry">
            <mxPoint x="620" y="380" as="sourcePoint" />
            <mxPoint x="370" y="380" as="targetPoint" />
          </mxGeometry>
        </mxCell>
        <mxCell id="FNw5vrEfwZnPfqb92Tf1-21" value="return" style="html=1;verticalAlign=bottom;endArrow=open;dashed=1;endSize=8;" edge="1" parent="1" target="FNw5vrEfwZnPfqb92Tf1-8">
          <mxGeometry relative="1" as="geometry">
            <mxPoint x="350" y="380" as="sourcePoint" />
            <mxPoint x="110" y="380" as="targetPoint" />
          </mxGeometry>
        </mxCell>
        <mxCell id="FNw5vrEfwZnPfqb92Tf1-24" value="根据短信验证码获取accesstoken" style="html=1;verticalAlign=bottom;endArrow=block;" edge="1" parent="1" target="7baba1c4bc27f4b0-2">
          <mxGeometry width="80" relative="1" as="geometry">
            <mxPoint x="85" y="510" as="sourcePoint" />
            <mxPoint x="165" y="510" as="targetPoint" />
          </mxGeometry>
        </mxCell>
        <mxCell id="FNw5vrEfwZnPfqb92Tf1-34" value="return" style="html=1;verticalAlign=bottom;endArrow=open;dashed=1;endSize=8;" edge="1" parent="1" target="7baba1c4bc27f4b0-2">
          <mxGeometry relative="1" as="geometry">
            <mxPoint x="630" y="750" as="sourcePoint" />
            <mxPoint x="550" y="750" as="targetPoint" />
          </mxGeometry>
        </mxCell>
        <mxCell id="FNw5vrEfwZnPfqb92Tf1-35" value="return" style="html=1;verticalAlign=bottom;endArrow=open;dashed=1;endSize=8;" edge="1" parent="1" target="7baba1c4bc27f4b0-8">
          <mxGeometry relative="1" as="geometry">
            <mxPoint x="350" y="780" as="sourcePoint" />
            <mxPoint x="270" y="780" as="targetPoint" />
          </mxGeometry>
        </mxCell>
        <mxCell id="FNw5vrEfwZnPfqb92Tf1-36" value="&lt;font style=&quot;font-size: 24px&quot;&gt;登录流程&lt;/font&gt;" style="text;html=1;strokeColor=none;fillColor=none;align=center;verticalAlign=middle;whiteSpace=wrap;rounded=0;" vertex="1" parent="1">
          <mxGeometry x="420" y="-10" width="170" height="20" as="geometry" />
        </mxCell>
      </root>
    </mxGraphModel>
  </diagram>
</mxfile>
